<?xml version="1.0" encoding="UTF-8"?>
<!DOCTYPE svg PUBLIC "-//W3C//DTD SVG 1.1//EN" "http://www.w3.org/Graphics/SVG/1.1/DTD/svg11.dtd">
<!-- Creator: CorelDRAW -->
<svg xmlns="http://www.w3.org/2000/svg" xml:space="preserve" width="8.26772in" height="8.26772in" version="1.1" style="shape-rendering:geometricPrecision; text-rendering:geometricPrecision; image-rendering:optimizeQuality; fill-rule:evenodd; clip-rule:evenodd"
viewBox="0 0 8267.72 8267.72"
 xmlns:xlink="http://www.w3.org/1999/xlink"
 xmlns:xodm="http://www.corel.com/coreldraw/odm/2003">
 <defs>
  <style type="text/css">
   <![CDATA[
    .fil3 {fill:#FFCC29}
    .fil2 {fill:#ED3237}
    .fil0 {fill:#3E55A3}
    .fil4 {fill:#00A859}
    .fil1 {fill:#3E55A3;fill-rule:nonzero}
   ]]>
  </style>
 </defs>
 <g id="Layer_x0020_1">
  <metadata id="CorelCorpID_0Corel-Layer"/>
  <path class="fil0" d="M4131.06 8078.33c-44.92,0 -75.74,-4.36 -117.33,-4.2 -19.19,0.07 -39.81,0.72 -58.83,0.15 -80.68,-2.41 -207.01,-13.26 -286.14,-24 -74.93,-10.17 -141.88,-18.92 -212.48,-30.59 -136.93,-22.63 -267.76,-52.52 -399.61,-90.74 -66.48,-19.28 -124.69,-37.24 -188.69,-58.58 -90.74,-30.26 -180.28,-65.68 -267.24,-101.57 -29.57,-12.2 -59.94,-24.71 -87.37,-38.36l-83.28 -38.26c-54.85,-22.2 -107.97,-54.7 -161.3,-81.77 -93.24,-47.32 -181.7,-107.12 -271.16,-160.53 -63.81,-38.1 -123.46,-83.31 -184.18,-125.95 -70.81,-49.74 -140.57,-106.49 -206.69,-162.13 -67.99,-57.22 -237.98,-206.48 -288.9,-264.31l-58.71 -62.83c-41.19,-40.95 -78.85,-86.72 -117.31,-129.97 -94.65,-106.43 -186.95,-227.94 -265.56,-346.32 -58.04,-87.39 -115.58,-173.17 -166.44,-265.24 -52.26,-94.59 -101.35,-187.02 -146.73,-284.95l-57.41 -126.99c-268.18,-610.61 -370.26,-1345.74 -286.11,-2008.85 14.09,-111 28.39,-207.93 49.78,-314.84 20.39,-101.97 42.84,-198.38 71.51,-297.3 70.63,-243.7 163.51,-477.62 276.7,-704.01 53.77,-107.54 115.82,-210.56 177.22,-313.13 8.05,-13.44 13.64,-22.13 22.84,-35.84 9.58,-14.28 15.27,-24.57 24.26,-38.59 79.28,-123.66 173.31,-237.17 263.23,-352.85 8.13,-10.45 16.98,-21.15 26.4,-32.28 84.25,-99.45 175.32,-193.64 267.94,-285.28l176.31 -158.97c139.81,-118.44 288.13,-225.33 441.27,-325.69l311.87 -178.48c27.24,-13.62 52.6,-26.31 81.03,-40.52 15.63,-7.82 26.31,-13.23 41.86,-21l127.41 -57c88.07,-37.74 175.81,-73.09 265.69,-103.12 663.76,-221.81 1289.08,-266.6 1983.07,-152.56 105.49,17.33 203.09,38.39 302.33,66.48 33.53,9.49 65.19,17.53 95.54,26 32.88,9.17 60.51,19.25 93.06,28.48 123.72,35.11 240.37,83.71 358.06,132.29 85.31,35.21 168.13,76.88 250.66,118.15 211.83,105.92 412.87,236.17 600.76,379.94 58,44.39 179.22,138.91 235.76,195.92l95.28 89.12c33.68,25.7 62.76,60.98 93.27,91.13l146.64 159.31c6.94,7.85 6.29,8.81 12.81,16.52 52.12,61.62 104.14,121.87 152.63,186.84l176.38 251.11 242.52 432.24c54.93,108.99 105.4,229.21 145.5,344.86 32.15,92.73 63.67,181.94 90.59,278.22 130.95,468.38 190.88,1035.37 122.81,1543.58 -47.03,351.15 -117.42,660.74 -247.34,984.82 -38.77,96.7 -76.85,171.85 -111.94,256.87 -11.63,28.18 -27.13,55.24 -40.14,81.4l-86.67 160.59c-7.36,13.32 -15.28,24.69 -22.08,36.59l-94.14 153.13c-93.19,142.18 -181.78,259.33 -288.04,390.91 -54.89,67.96 -113.18,133.22 -174.39,194.43l-123.64 123.64c-49.53,49.53 -104.87,103.09 -159.98,145.96 -92.56,72.02 -180.54,150.43 -277.32,217.22 -84.76,58.49 -169.82,116.15 -258.15,169.33 -65.03,39.15 -130.75,77.3 -198.99,111.14l-122.87 61.53c-170.46,75.8 -234.58,112.76 -436.45,179.63 -62.53,20.71 -125.2,40.12 -188.56,58.72 -185.37,54.42 -533.36,123.91 -724.68,134.48 -80.49,4.44 -152.01,12.88 -234.58,12.69 -43.78,-0.11 -75.12,4.19 -121.54,4.19zm-75.44 104.78c253.5,0 474.36,-9.29 717.26,-49.7 36.84,-6.13 70.93,-11.02 107.35,-18.38 67.8,-13.71 134.91,-27.78 203.87,-43.41 34.52,-7.82 63.28,-15.63 96.5,-25.04 157.69,-44.63 312.78,-94.86 464.63,-155.63 157.93,-63.21 315.36,-134.81 461.6,-221.54 14.43,-8.56 26.76,-15.5 40.12,-22.74 89.73,-48.59 217.96,-129.48 302.39,-192.15l210.72 -158.08c25.11,-19.74 44.92,-37.56 68.85,-56.88l261.48 -237.25 207.25 -224.43c6.56,-7.75 5.84,-8.63 12.85,-16.49 53.18,-59.69 103.27,-124.28 151.91,-187.57l53.28 -72.44c62.21,-83.16 115.86,-172.41 172.17,-259.52 49.23,-76.16 92.98,-157.32 134.98,-238.02l82.43 -169.04c73.69,-147.17 159.14,-379.18 203.43,-538.38 17.51,-62.93 36.33,-129 52.72,-194.55 40.78,-163.08 72.79,-348.34 92.3,-523.78 4.48,-40.29 5.39,-74.58 9.78,-115.96 33.95,-320.72 3.12,-782.03 -59.64,-1094.18 -50.45,-250.93 -119.43,-492.29 -214.02,-728.96 -120.5,-301.5 -276.72,-590.04 -467.02,-853.15 -67.1,-92.78 -147.26,-204.78 -224.95,-286.35 -53.84,-56.53 -101.52,-118.98 -157.15,-173.95l-293.18 -272.61c-85.63,-72.44 -173.64,-143.53 -265.3,-208.29l-111.41 -77.19c-156.61,-101.86 -313.45,-189.75 -480.91,-273.48 -85.02,-42.5 -170.2,-79.23 -258.45,-114.56l-204.8 -76c-23.3,-7.71 -47.61,-14.37 -73.43,-22.96 -240.12,-79.91 -522.94,-140.24 -778.29,-164.69 -117.03,-11.2 -227.67,-21.02 -356,-21.19 -29.49,-0.05 -52.96,-4.34 -87.87,-4.34l-447.69 25.9c-159.01,17.68 -331.3,46.19 -482.77,83.02 -251.96,61.28 -480.57,132.46 -705.45,237.53 -364.57,170.34 -582.52,300.47 -905.68,552.8 -11.76,9.19 -17.01,14.63 -27.51,22.79l-225.32 197.97c-32.06,29.65 -115.53,110.3 -139.92,140.87l-111.51 123.19c-10.41,10.47 -11.88,14.86 -21,25.1l-65.14 77.35c-87.01,103.38 -165.49,212.33 -240.96,324.83 -13.09,19.52 -22.63,36.17 -36.04,56.17 -140.94,210.16 -256.75,447.3 -352.76,686.61 -37.28,92.93 -67.05,184.72 -98.7,278.48 -57.2,169.43 -98,348.17 -127.61,526.19 -4.83,29.05 -8.85,57.44 -13.14,83.26 -13.48,81.1 -26.46,168.53 -30.49,250.31l-11.5 177.09c-6.53,47.62 -1.14,219.25 -1.14,275.46 0,64.64 3.57,122.09 8.15,180.44 4.85,61.85 6.43,114.36 14.6,173.99 29.43,214.74 63.3,426.38 122.12,632.26 70.44,246.53 148.15,462.69 257.47,681.33 19.95,39.91 41,87.61 63.05,125.54 23.01,39.61 43.97,81.31 67.06,121.54 78.55,136.93 166.14,271.04 260.86,397.14 14.67,19.53 26.96,35.96 41.29,55.1 106.1,141.81 227.41,276.76 352.52,401.87 54.3,54.31 110.82,108.18 169.55,157.35 10.21,8.56 15.51,16.35 25.76,24.53 35.59,28.44 66.45,56.89 102.52,86.07 70.28,56.87 138.91,111.17 214.11,163.08l313.48 202.02c90.95,54.54 182.13,102.71 278.52,148.97 12.14,5.83 20.1,8.04 32.24,13.86 490.83,235.63 1100.82,382.83 1645.62,382.83z"/>
  <path class="fil0" d="M4130.8 7163.76c-34.48,0 -58.14,-3.34 -90.07,-3.22 -14.73,0.06 -30.56,0.55 -45.15,0.11 -61.93,-1.85 -158.91,-10.18 -219.64,-18.42 -57.52,-7.81 -108.91,-14.53 -163.11,-23.48 -105.11,-17.37 -205.54,-40.31 -306.74,-69.66 -51.03,-14.8 -95.71,-28.59 -144.84,-44.96 -69.65,-23.23 -138.39,-50.42 -205.13,-77.97 -22.7,-9.37 -46.01,-18.96 -67.07,-29.44l-63.93 -29.37c-42.1,-17.04 -82.88,-41.99 -123.81,-62.77 -71.57,-36.32 -139.48,-82.22 -208.15,-123.22 -48.98,-29.24 -94.77,-63.95 -141.38,-96.68 -54.36,-38.18 -107.91,-81.74 -158.65,-124.45 -52.19,-43.92 -182.67,-158.5 -221.76,-202.89l-45.07 -48.23c-31.62,-31.43 -60.52,-66.57 -90.04,-99.76 -72.65,-81.7 -143.5,-174.97 -203.85,-265.84 -44.55,-67.08 -88.72,-132.92 -127.76,-203.6 -40.11,-72.61 -77.8,-143.56 -112.63,-218.73l-44.07 -97.48c-205.86,-468.7 -284.21,-1033 -219.62,-1542.01 10.81,-85.2 21.8,-159.61 38.21,-241.67 15.65,-78.28 32.88,-152.28 54.89,-228.22 54.22,-187.06 125.51,-366.62 212.4,-540.4 41.28,-82.55 88.91,-161.63 136.04,-240.36 6.18,-10.31 10.47,-16.98 17.53,-27.51 7.35,-10.97 11.72,-18.86 18.63,-29.63 60.85,-94.92 133.04,-182.05 202.06,-270.85 6.24,-8.02 13.04,-16.23 20.27,-24.78 64.67,-76.34 134.58,-148.64 205.67,-218.98l135.33 -122.03c107.32,-90.91 221.17,-172.96 338.72,-250l239.39 -137.01c20.91,-10.46 40.38,-20.19 62.2,-31.1 12,-6 20.2,-10.15 32.13,-16.12l97.8 -43.75c67.61,-28.97 134.96,-56.11 203.94,-79.16 509.51,-170.26 989.52,-204.64 1522.22,-117.11 80.98,13.31 155.89,29.47 232.07,51.03 25.74,7.28 50.04,13.46 73.34,19.96 25.24,7.04 46.44,14.78 71.43,21.87 94.97,26.95 184.51,64.26 274.85,101.55 65.49,27.03 129.06,59.01 192.41,90.69 162.6,81.3 316.93,181.28 461.15,291.65 44.53,34.07 137.57,106.62 180.97,150.39l73.14 68.41c25.85,19.73 48.17,46.8 71.59,69.96l112.56 122.29c5.33,6.03 4.83,6.76 9.84,12.69 40.01,47.3 79.94,93.55 117.16,143.42l135.39 192.75 186.16 331.79c42.17,83.66 80.91,175.94 111.69,264.71 24.69,71.18 48.87,139.66 69.54,213.56 100.52,359.53 146.52,794.76 94.27,1184.86 -36.1,269.55 -90.13,507.19 -189.86,755.96 -29.76,74.23 -58.99,131.91 -85.93,197.18 -8.93,21.63 -20.82,42.4 -30.81,62.48l-66.54 123.28c-5.65,10.22 -11.72,18.95 -16.95,28.09l-72.26 117.54c-71.53,109.13 -139.53,199.06 -221.1,300.06 -42.13,52.17 -86.88,102.26 -133.86,149.24l-94.91 94.91c-38.02,38.02 -80.5,79.14 -122.8,112.04 -71.05,55.28 -138.58,115.47 -212.87,166.74 -65.07,44.9 -130.36,89.16 -198.16,129.98 -49.92,30.06 -100.37,59.33 -152.75,85.31l-94.32 47.23c-130.85,58.19 -180.06,86.56 -335.02,137.89 -48,15.9 -96.11,30.8 -144.74,45.07 -142.29,41.77 -409.41,95.11 -556.27,103.22 -61.79,3.41 -116.69,9.89 -180.07,9.74 -33.6,-0.08 -57.67,3.22 -93.29,3.22zm-57.91 80.43c194.59,0 364.13,-7.13 550.57,-38.15 28.28,-4.7 54.44,-8.46 82.4,-14.11 52.04,-10.52 103.56,-21.32 156.49,-33.32 26.5,-6 48.57,-12 74.07,-19.22 121.04,-34.26 240.1,-72.81 356.66,-119.46 121.23,-48.52 242.07,-103.48 354.32,-170.06 11.08,-6.57 20.54,-11.9 30.8,-17.46 68.87,-37.3 167.3,-99.39 232.12,-147.5l161.75 -121.35c19.28,-15.15 34.48,-28.83 52.85,-43.67l200.72 -182.11 159.09 -172.28c5.03,-5.95 4.48,-6.62 9.86,-12.65 40.82,-45.82 79.27,-95.4 116.61,-143.98l40.9 -55.61c47.75,-63.84 88.93,-132.35 132.16,-199.21 37.79,-58.46 71.37,-120.76 103.61,-182.7l63.27 -129.76c56.56,-112.96 122.15,-291.06 156.15,-413.27 13.44,-48.3 27.89,-99.02 40.47,-149.33 31.3,-125.18 55.87,-267.39 70.84,-402.06 3.44,-30.93 4.14,-57.25 7.51,-89.01 26.06,-246.19 2.4,-600.3 -45.78,-839.9 -38.73,-192.61 -91.68,-377.88 -164.28,-559.56 -92.49,-231.43 -212.42,-452.92 -358.49,-654.89 -51.5,-71.21 -113.04,-157.19 -172.67,-219.81 -41.32,-43.39 -77.93,-91.33 -120.63,-133.52l-225.05 -209.26c-65.73,-55.6 -133.29,-110.17 -203.65,-159.88l-85.52 -59.25c-120.22,-78.19 -240.61,-145.65 -369.15,-209.92 -65.26,-32.63 -130.65,-60.82 -198.39,-87.93l-157.2 -58.34c-17.89,-5.92 -36.55,-11.03 -56.37,-17.62 -184.31,-61.34 -401.41,-107.65 -597.42,-126.42 -89.84,-8.6 -174.76,-16.13 -273.27,-16.27 -22.64,-0.04 -40.65,-3.33 -67.45,-3.33l-343.65 19.88c-122.06,13.57 -254.31,35.45 -370.58,63.72 -193.41,47.04 -368.89,101.68 -541.51,182.33 -279.85,130.75 -447.15,230.64 -695.21,424.33 -9.02,7.05 -13.06,11.22 -21.12,17.49l-172.96 151.96c-24.61,22.76 -88.68,84.67 -107.41,108.13l-85.59 94.56c-7.99,8.04 -9.12,11.41 -16.12,19.27l-50 59.37c-66.79,79.35 -127.03,162.98 -184.96,249.35 -10.05,14.98 -17.37,27.76 -27.67,43.11 -108.19,161.32 -197.08,343.35 -270.78,527.05 -28.62,71.33 -51.47,141.79 -75.77,213.77 -43.91,130.05 -75.22,267.26 -97.95,403.91 -3.71,22.3 -6.79,44.09 -10.09,63.91 -10.34,62.26 -20.31,129.37 -23.4,192.14l-8.83 135.94c-5.01,36.55 -0.88,168.3 -0.88,211.45 0,49.61 2.74,93.72 6.26,138.51 3.72,47.48 4.93,87.79 11.21,133.56 22.59,164.84 48.59,327.3 93.74,485.33 54.07,189.24 113.72,355.16 197.63,522.99 15.32,30.63 31.48,67.26 48.4,96.37 17.67,30.4 33.75,62.41 51.47,93.3 60.29,105.11 127.53,208.05 200.24,304.85 11.26,14.99 20.7,27.6 31.7,42.3 81.44,108.86 174.56,212.44 270.59,308.48 41.68,41.69 85.06,83.04 130.15,120.79 7.84,6.56 11.91,12.54 19.77,18.83 27.32,21.83 51.01,43.67 78.7,66.07 53.94,43.65 106.63,85.34 164.35,125.19l240.63 155.07c69.81,41.87 139.81,78.84 213.8,114.35 9.31,4.47 15.43,6.17 24.75,10.64 376.77,180.87 845,293.87 1263.19,293.87z"/>
  <path class="fil1" d="M427.28 3433.93c-24.3,136.05 51.49,248.67 183.11,272.17 130.99,23.39 241.07,-56.04 265.37,-192.09 18.16,-101.7 -35.18,-222.02 -179.17,-247.73 -12.38,-2.21 -25.48,-3.91 -39.43,-4.48l-38.44 215.26 86.02 15.36 18.1 -101.39c39.87,19.89 55.45,54.81 45.73,109.28 -9.87,55.29 -57.98,99.38 -136.68,85.33 -67.66,-12.08 -106.86,-63.78 -95.94,-124.94 6.57,-36.82 23.95,-60.86 46.52,-76.95l-66.8 -97.39c-44.11,30.11 -76.14,78.9 -88.4,147.59zm115.75 -429.81l-38.28 113.15 416.84 141.05 38.28 -113.15 -158.5 -53.63 52.19 -154.24 158.5 53.63 38.28 -113.14 -416.84 -141.05 -38.28 113.14 154.33 52.22 -52.19 154.23 -154.33 -52.22zm266.17 -632.73l-64.19 125.34 315.74 348.87 56.88 -111.07 -61.33 -63.9 74.94 -146.31 87.83 12.14 57.74 -112.75 -467.61 -52.32zm73.88 118l136.31 19.31 -41.13 80.3 -95.19 -99.61zm294.96 -689.39l-69.22 97.33 201.6 143.37 -306.89 4.7 -67.4 94.78 358.63 255.03 69.22 -97.34 -201.6 -143.37 306.89 -4.7 67.41 -94.78 -358.63 -255.02zm270.62 -299.2l-97.17 101.92 203.54 424.23 86.11 -90.32 -40.63 -78.69 113.44 -118.98 80.76 36.61 87.41 -91.69 -433.46 -183.08zm37.29 134.14l125.2 57.26 -62.25 65.3 -62.95 -122.56zm722.41 -345.19l-176.46 138.67 -39.23 -49.92 164.11 -128.96 -65.65 -83.54 -164.11 128.96 -35.74 -45.48 176.46 -138.67 -65.64 -83.54 -270.38 212.48 271.9 346 270.38 -212.47 -65.65 -83.54zm258.31 -533.92l-103.55 59.54 123.31 214.45 -280.81 -123.89 -100.82 57.97 219.36 381.49 103.54 -59.54 -123.31 -214.46 280.81 123.89 100.82 -57.97 -219.35 -381.49zm437.2 -177.77l-343.88 135.59 40.35 102.35 116.39 -45.89 121.06 307.04 111.12 -43.81 -121.06 -307.04 116.38 -45.89 -40.35 -102.35zm499.69 202.96l-215.9 61.31 -17.34 -61.08 200.78 -57.01 -29.02 -102.2 -200.78 57.01 -15.8 -55.63 215.89 -61.3 -29.02 -102.2 -330.79 93.93 120.2 423.32 330.8 -93.93 -29.02 -102.2zm224.42 -370.5l-194.78 24.76 55.46 436.44 118.5 -15.06 -19.67 -154.77 6.55 -0.83 125.06 141.37 139.7 -17.75 -139.15 -144.97c71.96,-24.67 104.78,-78.06 96.22,-145.41 -11.17,-87.83 -76.78,-137.9 -187.89,-123.78zm12.28 106.59c29.42,-3.74 52.52,6 55.87,32.4 3.37,26.51 -16.6,41.4 -46.02,45.13l-75.05 9.54 -9.85 -77.54 75.04 -9.54zm459.8 161.33c110.4,-2.79 167.62,-65.03 165.38,-153.64 -2.29,-90.39 -62.6,-150.6 -174.58,-147.77l-196.28 4.96 11.12 439.82 119.41 -3.02 -3.5 -138.37 78.45 -1.98zm-7.74 -194.12c29.65,-0.75 51.74,15.04 52.46,43.53 0.72,28.6 -20.55,45.17 -50.2,45.92l-75.62 1.91 -2.26 -89.44 75.62 -1.91zm477.25 -81.95l-194.78 -24.75 -55.46 436.44 118.49 15.06 19.67 -154.76 6.55 0.83 85.73 168.16 139.69 17.75 -98.46 -175.16c75.84,-5.89 120.98,-49.37 129.54,-116.73 11.16,-87.83 -39.84,-152.71 -150.96,-166.83zm-14.77 106.28c29.42,3.74 49.35,18.94 45.99,45.34 -3.37,26.51 -26.43,35.93 -55.85,32.2l-75.04 -9.54 9.85 -77.54 75.04 9.53zm375.3 -48.89l-117.58 -21 -77.35 433.21 117.58 21 77.35 -433.21zm449.38 162.61c-62.58,-59.59 -110.85,-79.52 -165.98,-95.17 -101.39,-28.8 -184.92,6.09 -210.02,86.42 -23.38,74.29 5.23,127.72 97.98,172.02l15.15 7.25c49.87,23.85 74.96,35.22 68.69,57.3 -5.93,20.87 -30.87,22.82 -61.62,14.09 -64.2,-18.23 -98.14,-52.92 -126.05,-82.74l-82.83 77.67c38.59,48.21 102.48,85.95 178.18,107.45 89.9,25.53 191.67,11.61 222.03,-95.32 18.41,-64.81 -14.11,-119.46 -96.81,-161.13l-12.74 -6.56c-40.74,-20.71 -83.09,-35.35 -76.3,-59.24 5.38,-18.95 31.27,-20.74 62.01,-12.01 52.11,14.8 88.56,46.38 112.04,69.93l76.29 -79.95zm299.85 453.7l-204.5 -92.46 26.16 -57.85 190.17 85.98 43.77 -96.81 -190.17 -85.98 23.82 -52.7 204.5 92.46 43.77 -96.81 -313.34 -141.67 -181.29 400.98 313.34 141.67 43.77 -96.81zm523.8 -40.82c-46.25,-73 -88.23,-104.04 -137.92,-132.6 -91.38,-52.54 -180.87,-38.97 -224.72,32.87 -40.71,66.39 -25.92,125.17 53.3,190.66l12.94 10.7c42.59,35.24 64.17,52.36 52.73,72.26 -10.81,18.8 -35.49,14.64 -63.2,-1.29 -57.85,-33.26 -82.36,-75.15 -102.2,-110.85l-99.2 55.24c25.74,56.13 78.56,108.26 146.78,147.48 81.02,46.58 183.11,57.79 238.52,-38.59 33.58,-58.41 15.3,-119.31 -54.81,-179.81l-10.77 -9.45c-34.48,-29.98 -72.02,-54.46 -59.64,-76 9.81,-17.07 35.37,-12.53 63.07,3.4 46.96,27 74.65,66.49 91.71,95.03l93.42 -59.05zm442.04 304.85l-106.44 -92.2 -414.04 223.54 94.32 81.7 76.67 -44.34 124.26 107.64 -32.72 82.41 95.75 82.94 162.2 -441.7zm-132.21 43.64l-51.22 127.8 -68.19 -59.07 119.41 -68.73zm452.59 270.1c-90.48,-104.46 -225.7,-116.38 -326.76,-28.84 -100.58,87.13 -108.07,222.67 -17.58,327.12 67.64,78.09 194.73,112.3 305.28,16.54 9.5,-8.23 19.07,-17.35 28.29,-27.83l-143.17 -165.28 -66.05 57.21 67.43 77.85c-40.54,18.48 -77.49,8.63 -113.72,-33.18 -36.77,-42.45 -40.79,-107.59 19.63,-159.93 51.95,-45 116.8,-42.96 157.48,4.01 24.49,28.27 32.24,56.9 30.56,84.56l117.73 9.33c4.33,-53.24 -13.44,-108.81 -59.13,-161.56zm107.07 722.02l-121.13 -188.93 53.45 -34.27 112.65 175.7 89.44 -57.34 -112.65 -175.71 48.69 -31.21 121.13 188.93 89.44 -57.34 -185.59 -289.49 -370.46 237.51 185.59 289.49 89.44 -57.34zm523.38 275.94l-54.44 -106.31 -220.18 112.76 137.36 -274.47 -53.02 -103.52 -391.68 200.59 54.44 106.31 220.18 -112.77 -137.36 274.47 53.02 103.52 391.68 -200.59zm121.22 322.89c-43.63,-128.92 -163.81,-189.91 -290.65,-146.99 -126.84,42.93 -185.3,164.35 -141.67,293.28 27.91,82.47 86.39,133.69 158.64,153.05l33.48 -114.86c-42.2,-10.94 -70.84,-36.76 -84.24,-76.35 -17.43,-51.51 2.47,-113.33 73.63,-137.41 63.72,-21.56 122.29,6.41 141.83,64.17 13.7,40.49 6.02,77.6 -21.67,109.54l89.33 81.6c54.41,-58.89 68.93,-144.44 41.32,-226.02zm150.57 692.62l-23.37 -130.89 -179.27 -58.03 148.05 -116.8 -24.09 -134.91 -241.58 211.73 -162.46 29.01 21 117.58 164 -29.28 297.72 111.6z"/>
  <path class="fil1" d="M1267.94 5974.35l-95.76 -149.94 -20.13 12.85 41.11 64.37 -165.57 105.74 13.53 21.19 165.57 -105.74 41.11 64.37 20.13 -12.85zm12.03 23.93l-179.21 128.1 14.74 20.63 78 -55.75 16.15 22.59 -33.03 118.66 18.31 25.61 32.06 -120.02 2.1 2.94c27.27,38.15 64.17,48.15 95.11,26.03 32.39,-23.16 34.66,-58.45 5.93,-98.64l-50.14 -70.15zm30.61 83.72c19.16,26.81 19.07,48.84 -1.69,63.67 -20.85,14.9 -42.08,8.7 -61.52,-18.49l-35.22 -49.27 63.2 -45.18 35.22 49.27zm145.82 156.36l-19.34 -24.58 -229.05 65.23 16.23 20.63 63.53 -18.39 67.35 85.6 -32.72 57.54 16.72 21.24 117.3 -207.27zm-29.59 2.89l-58.85 103.29 -55.4 -70.41 114.24 -32.89zm224.22 228.45l-16.56 -19.2 -134.01 115.49 45.09 -218.67 -14.91 -17.3 -166.91 143.85 16.55 19.2 134.01 -115.5 -45.09 218.67 14.91 17.3 166.91 -143.85zm127.9 154c-4.91,-24.28 -16.36,-48.92 -40.6,-72.09 -33.32,-31.85 -76.46,-40.7 -105.42,-10.41 -25.28,26.43 -17.56,58.01 6.7,87.07l14.28 17.13c22.54,26.98 28.41,47.46 13.6,62.94 -18.2,19.04 -47.23,10.44 -71.87,-13.13 -20.72,-19.81 -33.35,-47.98 -35.47,-67.9l-23.94 5.02c3.3,26.64 19.91,58.17 43.01,80.25 34.34,32.83 78.65,43.88 108.81,12.34 26.36,-27.57 13.59,-61.15 -9.65,-89.45l-13.37 -16.27c-21.98,-26.67 -26.16,-46.17 -12.01,-60.98 17.24,-18.02 44.71,-12.41 68.72,10.54 19.08,18.24 29.28,39.73 33.71,60.79l23.51 -5.87zm92.59 185.69l-91.41 -79.31 48.2 -55.56 95.92 83.22 15.66 -18.04 -115.07 -99.83 -144.4 166.44 19.15 16.61 64.89 -74.79 91.41 79.3 15.65 -18.04zm178.19 14.81c-51.59,-40.26 -118.74,-32.8 -159.29,19.16 -40.54,51.96 -31.46,118.91 20.12,159.17 51.75,40.39 118.7,32.76 159.24,-19.19 40.55,-51.95 31.67,-118.75 -20.07,-159.13zm-15.02 19.24c39.07,30.49 46.83,81.94 14.28,123.65 -32.55,41.71 -84.34,46.69 -123.41,16.2 -38.95,-30.39 -46.71,-81.85 -14.16,-123.56 32.55,-41.71 84.35,-46.68 123.29,-16.29zm137.87 74.94l-127.79 179.44 20.65 14.71 55.61 -78.09 22.62 16.11 7.37 122.95 25.65 18.26 -8.73 -123.92 2.94 2.09c38.19,27.2 76.33,24.65 98.41,-6.33 23.09,-32.43 13.75,-66.54 -26.49,-95.2l-70.24 -50.02zm56.19 69.22c26.84,19.12 33.92,39.97 19.12,60.76 -14.87,20.87 -36.96,21.91 -64.19,2.52l-49.33 -35.13 45.07 -63.28 49.33 35.13zm301.4 154l-33.41 -19.26 -149.5 105.99 16.65 -182.57 -33.27 -19.18 -110.04 190.9 21.96 12.66 95.26 -165.26 -16.84 182.28 23.01 13.26 150.05 -106.94 -95.89 166.35 21.97 12.66 110.04 -190.9zm69.61 33.96l-22.6 -11.5 -99.9 196.4 22.59 11.5 99.9 -196.4zm215.13 100.02l-23.12 -10.4 -72.57 161.35 -51.65 -217.22 -20.83 -9.37 -90.38 200.95 23.12 10.4 72.57 -161.34 51.65 217.22 20.83 9.37 90.39 -200.95zm144.86 54.23c-60.36,-24.01 -123.12,1.65 -147.54,63.04 -26.35,66.25 9.09,125.4 62.88,146.8 61.72,24.55 117.89,-6.94 141.63,-66.63 0.75,-1.9 1.42,-4 2.09,-6.11l-89.13 -35.45 -8.71 21.9 63.72 25.35c-20.37,40.56 -57.33,55.68 -100.66,38.44 -44.88,-17.85 -66.71,-65.16 -47.09,-114.47 19.56,-49.17 67.88,-68.45 113.78,-50.19 25.46,10.13 43.26,29.72 50.77,52.95l23.98 -9.69c-10.15,-28.9 -33.26,-53.03 -65.72,-65.94zm427.68 132.28l-37.11 -10.46 -118.9 139.46 -28.69 -181.07 -36.96 -10.42 -59.79 212.08 24.4 6.88 51.76 -183.59 28.44 180.83 25.56 7.2 119.2 -140.52 -52.1 184.8 24.4 6.88 59.79 -212.08zm193 54.23c-17.47,-17.56 -40.59,-31.82 -73.58,-37.83 -45.35,-8.25 -86.24,8.12 -93.74,49.35 -6.54,35.98 17.28,58.1 53.53,69.01l21.35 6.44c33.67,10.12 49.85,23.97 46.01,45.06 -4.71,25.92 -33.69,34.71 -67.23,28.61 -28.2,-5.13 -54.26,-21.69 -67,-37.16l-17.22 17.37c17.43,20.42 48.65,37.6 80.09,43.32 46.75,8.5 89.81,-6.67 97.63,-49.6 6.83,-37.53 -22.31,-58.54 -57.3,-69.37l-20.12 -6.21c-33.03,-10.16 -47.26,-24.15 -43.59,-44.3 4.46,-24.54 30.49,-34.98 63.16,-29.03 25.98,4.72 46.31,17.05 61.61,32.19l16.39 -17.83zm274.25 14.29l-38.26 -4.74 -96.48 155.8 -55.69 -174.67 -38.11 -4.72 -27.11 218.67 25.16 3.12 23.46 -189.3 55.4 174.47 26.35 3.27 96.63 -156.9 -23.62 190.55 25.16 3.12 27.1 -218.67zm191.98 203.43l-129.46 -3.68 2.14 -75.15 124.11 3.53 0.67 -23.56 -124.11 -3.53 2.1 -73.89 128.04 3.64 0.67 -23.77 -153.38 -4.36 -6.26 220.15 154.79 4.4 0.68 -23.77zm158.27 -111.56c-14.56,-9.18 -36.07,-15.17 -59.48,-14.51 -35.61,1.01 -58.9,18.65 -58.1,46.78 0.63,22.2 16.82,36.74 50.35,39.87l17.81 1.54c21.12,1.91 31.33,8.86 31.67,20.85 0.45,15.71 -15.13,24.48 -40.27,25.2 -25.08,0.71 -40.37,-6.24 -51.99,-14.72l-10.33 17.91c19.31,13.76 43.48,17.79 62.59,17.24 40.01,-1.14 64.95,-19.61 64.15,-47.89 -0.69,-24.41 -19.44,-36.98 -51.08,-40.16l-17.66 -1.7c-19.49,-1.8 -30.51,-7.62 -30.86,-20.09 -0.41,-14.45 13.31,-23.81 34.47,-24.41 20.11,-0.57 39.28,6.27 49.04,12.6l9.69 -18.51zm49.56 95.29l-7.17 79.76 20.26 -0.57 14.24 -79.96 -27.34 0.78zm317.37 -6.09l-129.13 9.83 -5.7 -74.97 123.8 -9.42 -1.79 -23.51 -123.8 9.43 -5.61 -73.71 127.72 -9.72 -1.81 -23.72 -153 11.65 16.72 219.6 154.41 -11.75 -1.8 -23.71zm245.63 -241.72l-37.93 6.9 -45.56 177.5 -105.3 -150.07 -37.78 6.87 39.43 216.79 24.94 -4.54 -34.13 -187.67 104.97 149.97 26.13 -4.75 45.37 -178.59 34.36 188.91 24.94 -4.54 -39.43 -216.79zm162.53 97.88c47.98,-11.07 70.22,-41.42 60.92,-81.75 -9.29,-40.27 -42.61,-57.91 -90.59,-46.83l-80.96 18.68 49.54 214.7 24.7 -5.7 -19.87 -86.11 56.25 -12.98zm-25.07 -105.13c33.02,-7.63 54.05,1.94 60.36,29.3 6.33,27.41 -8.38,45.21 -41.41,52.83l-55.49 12.81 -18.95 -82.14 55.49 -12.8zm190.92 -80.1c-61.86,21.34 -92.17,81.73 -70.68,144.03 21.5,62.3 82.59,91.15 144.46,69.8 62.05,-21.41 92.11,-81.71 70.62,-144.01 -21.49,-62.3 -82.35,-91.24 -144.4,-69.83zm7.96 23.07c46.85,-16.16 94.22,5.34 111.48,55.36 17.26,50.02 -6.78,96.17 -53.63,112.33 -46.7,16.11 -94.07,-5.39 -111.33,-55.41 -17.26,-50.02 6.78,-96.17 53.48,-112.28zm420.85 -180.56l-24.15 9.43 12.96 200.89 -127.6 -156.13 -26.65 10.4 11.74 201.2 -126.37 -156.44 -24.59 9.6 146.74 179.26 28.84 -11.26 -11.07 -196.05 124.68 151.7 28.99 -11.31 -13.52 -231.26zm242.58 91.78l-115.56 58.45 -33.94 -67.09 110.8 -56.04 -10.64 -21.04 -110.79 56.05 -33.37 -65.96 114.3 -57.82 -10.74 -21.22 -136.93 69.26 99.41 196.53 138.19 -69.9 -10.73 -21.22zm-49.38 -196.29l110.36 190.66 21.94 -12.7 -48.03 -82.98 24.03 -13.91 114.95 44.24 27.24 -15.77 -116.4 -43.4 3.13 -1.81c40.58,-23.49 54.07,-59.26 35.02,-92.18 -19.95,-34.46 -54.87,-40.09 -97.62,-15.34l-74.63 43.2zm86.27 -22.46c28.52,-16.51 50.44,-14.31 63.22,7.77 12.83,22.18 4.63,42.72 -24.3,59.47l-52.41 30.34 -38.93 -67.24 52.41 -30.34zm109.52 -95.04l-21.37 13.65 118.59 185.7 21.37 -13.64 -118.6 -185.71zm194.66 -133.88l-20.63 14.75 102.88 143.93 -213.69 -64.72 -18.58 13.28 128.14 179.26 20.63 -14.74 -102.87 -143.93 213.69 64.72 18.58 -13.28 -128.13 -179.26zm119.7 -97.22c-51.06,40.17 -60.34,107.33 -19.49,159.25 44.09,56.04 113.04,55.05 158.53,19.26 52.2,-41.08 53.14,-105.47 13.43,-155.94 -1.27,-1.61 -2.75,-3.24 -4.24,-4.87l-75.38 59.31 14.58 18.53 53.89 -42.41c24.87,37.97 19.4,77.53 -17.25,106.36 -37.96,29.87 -89.83,25.02 -122.65,-16.69 -32.72,-41.58 -25.16,-93.06 13.67,-123.61 21.53,-16.94 47.41,-22.51 71.27,-17.35l3.65 -25.6c-30.09,-5.72 -62.55,2.17 -90.02,23.77zm318.37 -103.87c35.6,-34.04 39.2,-71.5 10.61,-101.41 -28.57,-29.87 -66.22,-28.01 -101.81,6.03l-60.04 57.43 152.29 159.25 18.32 -17.52 -61.08 -63.87 41.72 -39.9zm-75.26 -77.57c24.49,-23.42 47.45,-25.95 66.85,-5.65 19.44,20.33 15.9,43.15 -8.59,66.57l-41.16 39.36 -58.26 -60.92 41.16 -39.36zm314.47 -76.24l-89.49 93.61 -54.34 -51.96 85.8 -89.74 -17.04 -16.29 -85.81 89.75 -53.43 -51.09 88.52 -92.58 -17.19 -16.44 -106.04 110.91 159.19 152.19 107.01 -111.94 -17.19 -16.43zm-59.35 -243.07c-40.26,51.58 -32.8,118.74 19.15,159.29 51.96,40.55 118.91,31.47 159.17,-20.12 40.39,-51.75 32.76,-118.7 -19.19,-159.24 -51.96,-40.55 -118.75,-31.67 -159.13,20.07zm19.24 15.02c30.49,-39.07 81.94,-46.83 123.65,-14.28 41.71,32.56 46.69,84.35 16.2,123.41 -30.39,38.95 -81.84,46.71 -123.56,14.16 -41.71,-32.55 -46.68,-84.35 -16.28,-123.29zm232.91 -127.31c28.57,-40.11 25.09,-77.58 -8.63,-101.59 -33.67,-23.98 -70.3,-15.08 -98.87,25.03l-48.2 67.69 179.48 127.82 14.71 -20.65 -71.99 -51.27 33.49 -47.02zm-88.49 -62.06c19.66,-27.61 41.74,-34.4 64.61,-18.11 22.92,16.32 23.72,39.4 4.06,67l-33.04 46.39 -68.66 -48.9 33.04 -46.39zm293.4 -132.01l-68.97 107 -165.13 -106.43 -13.74 21.31 185.2 119.38 82.71 -128.31 -20.08 -12.94zm93.81 -167.21l-64.67 112.2 -65.14 -37.55 62.01 -107.57 -20.42 -11.77 -62.01 107.57 -64.04 -36.91 63.97 -110.97 -20.61 -11.88 -76.63 132.94 190.81 109.99 77.33 -134.17 -20.6 -11.88z"/>
  <path class="fil2" d="M3664.29 3059.74c-23.48,-27.13 -480.45,-380.83 -502.68,-408.92 -23.09,-13.08 -346.91,-276.85 -395.45,-314.83 -23.32,-18.24 -30.56,-27.36 -68.26,-33.35 -62.82,-9.98 -95.35,35.93 -128.05,68.63l-204.45 200.84c-32.11,32.11 -68.95,64.96 -76.9,106.9l0 33.32c3.38,18.46 12.5,38.63 29.43,61.04 78.65,104.12 188.06,230.07 270.98,336.96 16.31,21.02 27.92,41.59 26.42,74.59 -2.05,45.19 -91.89,248.19 -110.23,294.06 -10.45,26.16 -103.39,246.94 -114.26,288.59 -2.84,0.1 -5.06,0.1 -6.42,-0.04 -25.46,7.48 -440.23,56.51 -501.28,64.94 -29.34,4.06 -40.91,2.91 -71.44,25.83 -50.89,38.17 -40.54,93.48 -39.82,139.72l1.98 286.58c0.72,45.42 -1.33,94.73 23.26,129.62l23.94 23.18c15.61,10.42 36.44,17.91 64.31,21.34 129.51,15.96 296.09,25.03 430.57,39.86 26.45,2.92 49.3,8.88 71.96,32.93 31.03,32.92 114.3,238.7 134.48,283.78 10.87,24.26 95.08,221.84 123.31,274.96 -101.71,126.29 -202.99,252.57 -299.29,375.88 -35.24,45.11 -92.39,104.72 -38.39,175.9l261.84 262.87c43.94,43.94 87.33,103.99 174.52,53.29 15.97,-9.29 304.94,-240.61 344.78,-277.64 85.31,-79.31 77,-54.43 196.57,-6.6l281.74 112.7c32.39,12.96 62.56,25.03 93.06,37.22 19.58,7.83 81.1,35.47 98.79,36.7l-68.3 -633.27c-8.02,-10.13 -120.59,-58.48 -157.53,-79.75 -61.05,-35.18 -130.05,-90.02 -183.63,-134.82 -87.1,-72.83 -196.2,-209.73 -248.35,-312.54 -7.31,-14.42 -44.9,-90.79 -55.03,-104.32 7.67,-12.33 3.63,-14.67 2.41,-19.22 -0.82,-3.02 -4.19,-10.46 -5.16,-12.71 -23.18,-53.79 -51.4,-141.87 -62.96,-196.06 -8.33,-39.08 -14.81,-72.9 -19.6,-112.3l-8.52 -196.92 14.83 -140.98c10.44,-63.2 29.98,-135.92 50.94,-197.86 2.46,-7.27 4.81,-11.78 6.61,-16.7 16.67,-3.06 15.29,-7.85 17.82,-12.11 1.6,-2.69 4.61,-10.28 5.54,-12.55 22.51,-54.07 66.13,-135.63 97,-181.64 22.26,-33.18 42.05,-61.36 67.01,-92.22l135.5 -143.14 111.58 -87.45c52.66,-36.48 118.47,-73.05 177.54,-101.09 11.82,-5.61 17.65,-5.88 27.28,-13.23z"/>
  <path class="fil3" d="M3161.61 2650.82c22.23,28.09 479.19,381.79 502.68,408.92l97.44 -35.77c78.93,-24.89 194.14,-50.41 278.2,-54.72l65 -3.75c147.73,-1.83 271.8,21.62 404.98,65.74 16.44,5.44 34.82,14.07 52.07,17.64l-70.63 -647.75 -16.1 -156.67c-7.08,-54.96 -9.58,-105.31 -17.07,-160.25 -6.91,-50.69 -13.45,-106.01 -16.57,-157.13 -7.21,-118.26 -59.65,-138.35 -133.19,-141.13l-76.69 0 -286.9 0c-28.71,1.17 -50.17,3.09 -57.98,6.14 -83.51,32.66 -73.46,102.79 -84.19,179.98 -9.98,71.82 -32.54,356.78 -46.9,390.96 -18.8,44.77 -56.28,57.9 -101.46,75.85 -82.32,32.72 -164.02,71.29 -245.57,105.44l-247.13 106.49z"/>
  <path class="fil4" d="M4581.67 5216.47c21.28,22.07 336.15,270.32 381.15,307.5 23.48,19.4 114.18,88.87 125.95,105.03 21.44,10.35 112.84,87.34 140.58,109.7 10.29,8.3 17.52,14.37 28.04,22.63 20.07,15.77 37.21,30.06 56.33,44.99l168.48 135.48c18.94,14.39 39.42,30.34 70.2,31.17 67.88,1.83 85.83,-29.78 129.52,-73.47 34.66,-34.66 66.66,-66.67 101.32,-101.33 34.66,-34.66 66.67,-66.67 101.33,-101.32 25.1,-25.1 65.35,-56.08 73.28,-100.97l0 -31.84c-1.85,-11.02 -5.67,-22.75 -11.93,-35.29 -10.83,-21.69 -48.69,-64.8 -65.63,-86.36l-180.51 -224.79c-75.59,-93.36 -89.44,-96.66 -45.39,-206.89 26.61,-66.59 190.02,-461.71 201.78,-505.8l93.49 -11.12c22.73,-2.79 440.74,-50.06 460.09,-57.9 10.48,-4.25 19.54,-9.52 27.36,-15.63l18.78 -19.11c42.9,-57.11 25.01,-155.06 24.4,-230.12 -0.4,-49.61 -8.2,-128.91 -3.97,-181.65 2.43,-30.12 5.08,-62.37 -3.87,-92.08 -10.52,-34.95 -34.7,-62.13 -70.78,-73.61 -36.94,-11.75 -403.32,-45.85 -461.06,-50.7 -78.06,-6.56 -95.43,-65.63 -129.93,-146.09 -24.98,-58.24 -165.22,-389.81 -199.5,-452.29l54.02 -67.36c14.27,-17.9 279.37,-344.54 287.68,-363.68 4.5,-10.38 7.28,-20.48 8.58,-30.33l0 -26.79c-9.41,-70.81 -90.81,-128.16 -143.84,-181.28 -35.05,-35.11 -96.18,-86.22 -130.11,-126.81 -19.39,-23.19 -40.08,-48.06 -67.29,-62.99 -32,-17.56 -68.29,-20.02 -102.08,-2.92 -34.59,17.5 -319.87,249.9 -364.47,286.89 -60.29,50.01 -114.07,20.05 -195.07,-13.18 -61.48,-25.22 -423.89,-176.03 -467.26,-185.03l70.63 647.75c14.56,11.76 73.93,33.45 103.83,50.82 54.37,31.59 95.7,53.31 146.98,91.85 30.21,22.7 124.37,96.9 148.84,126.17 7.91,9.46 8.94,12.42 18.2,21.6l56.06 63.37c6.43,7.31 11.78,15.18 17.28,22.52 39.6,52.94 140.2,198.76 144.74,253.31 3.08,-0.72 6.34,-2.36 9.71,-4.69l-4.15 5.26c2.15,18.59 29.3,75.67 38.46,109.01 16.66,60.65 30.92,105.09 40.5,168.53 5.65,37.36 20.84,156.28 17.78,194.31 -0.99,12.29 -2.32,15.11 -2.15,28.17l-4.41 84.48c-0.54,9.72 -2.23,19.09 -3.45,28.19 -8.68,64.28 -38.11,233.53 -72.27,279.62l-9.17 0.93 -49.44 106.16c-16.92,34.18 -39.04,70.07 -59.12,100.1 -57.52,86.05 -142.74,188.36 -223.81,253.85 -85.8,69.31 -143.69,108.65 -240.58,157.48 -18.41,9.28 -38.56,15.38 -54.16,26.53z"/>
  <path class="fil3" d="M3691 5227.32l68.3 633.27c-3.38,19.67 4.11,59.15 5.51,79.74 7.43,109.85 30.22,284.15 42.9,398.58 15.61,140.84 65.25,151.33 199.68,151.33l267.3 0c36.22,-1.41 65.41,-3.97 78.93,-8.4 41.5,-13.59 73.02,-48.9 81.87,-95.45 11.07,-58.3 27.78,-246.37 37.2,-313.81 6.9,-49.39 5.36,-117.68 21.55,-155.76 20.98,-49.33 53,-57.46 99.48,-77.85l462.07 -196.54c11.99,-4.74 22.33,-10.75 33,-13.45 -11.78,-16.16 -102.47,-85.63 -125.95,-105.03 -45,-37.18 -359.87,-285.43 -381.15,-307.5l-45.96 18.09c-245.07,97.14 -542.61,93.95 -792.07,10.43 -17.3,-5.79 -32.67,-13.81 -52.64,-17.67z"/>
  <path class="fil0" d="M1859.33 3718.37l4535.48 0c47.01,0 85.48,38.46 85.48,85.48l0 679.07c0,47.02 -38.47,85.48 -85.48,85.48l-4535.48 0c-47.02,0 -85.48,-38.46 -85.48,-85.48l0 -679.07c0,-47.02 38.46,-85.48 85.48,-85.48zm1955.02 218.61l-112.64 158.52c-46.94,-22.53 -90.46,-33.85 -130.33,-33.85 -26.42,0 -47.65,6.84 -63.69,20.64 -16.04,13.68 -24.06,31.85 -24.06,54.37 0,42.81 28.19,64.28 84.33,64.28l0 -82.57 233.65 0 0 284.37c-94.48,5.3 -158.4,7.9 -191.78,7.9 -129.04,0 -218.67,-27.37 -268.92,-82.21 -50.13,-54.85 -75.25,-118.77 -75.25,-191.78 0,-50.24 11.68,-96.25 35.03,-138.24 23.35,-41.87 57.08,-74.42 101.2,-97.43 44.23,-23 96.36,-34.56 156.76,-34.56 42.34,0 86.33,6.13 131.63,18.52 45.41,12.26 86.81,29.61 124.08,52.02zm509.3 332.73l0 132.34 -437.71 0 0 -527.34 437.71 0 0 132.33 -204.52 0 0 65.35 142.37 0 0 132.33 -142.37 0 0 64.99 204.52 0zm253.58 132.34l-233.54 0 183.17 -527.34 332.73 0 183.17 527.34 -233.3 0 -30.43 -89.17 -171.38 0 -30.43 89.17zm72.89 -213.61l86.45 0 -43.17 -130.92 -43.29 130.92z"/>
 </g>
</svg>
